# Blender 3.3.1
# www.blender.org
o iris
v -0.552588 -0.000000 1.188790
v -0.533759 0.143020 1.188790
v -0.478555 0.276294 1.188790
v -0.390739 0.390739 1.188790
v -0.276294 0.478555 1.188790
v -0.143020 0.533759 1.188790
v 0.000000 0.552588 1.188790
v 0.143020 0.533759 1.188790
v 0.276294 0.478555 1.188790
v 0.390739 0.390739 1.188790
v 0.478555 0.276294 1.188790
v 0.533759 0.143020 1.188790
v 0.552588 -0.000000 1.188790
v 0.533759 -0.143020 1.188790
v 0.478555 -0.276294 1.188790
v 0.390739 -0.390739 1.188790
v 0.276294 -0.478555 1.188790
v 0.143020 -0.533759 1.188790
v 0.000000 -0.552588 1.188790
v -0.143020 -0.533759 1.188790
v -0.276294 -0.478555 1.188790
v -0.390739 -0.390739 1.188790
v -0.478555 -0.276294 1.188790
v -0.533759 -0.143020 1.188790
vn -0.0000 -0.0000 1.0000
s 0
f 8//1 7//1 6//1
f 9//1 8//1 6//1
f 9//1 6//1 5//1
f 10//1 9//1 11//1
f 5//1 3//1 11//1
f 4//1 3//1 5//1
f 12//1 11//1 3//1
f 12//1 3//1 2//1
f 13//1 12//1 2//1
f 13//1 2//1 1//1
f 14//1 13//1 1//1
f 14//1 1//1 24//1
f 15//1 14//1 24//1
f 15//1 24//1 23//1
f 16//1 15//1 17//1
f 11//1 9//1 5//1
f 23//1 21//1 17//1
f 22//1 21//1 23//1
f 18//1 17//1 21//1
f 18//1 21//1 20//1
f 19//1 18//1 20//1
f 17//1 15//1 23//1
